# xmcd
#
# Track frame offsets:
#	150
#	28556
#	57911
#	86688
#	120049
#	155614
#	176028
#	198758
#	226445
#	252642
#	274834
#
# Disc length: 4587 seconds
#
# Revision: 1
# Processed by: cddbd v1.5.1PL0 Copyright (c) Steve Scherf et al.
# Submitted via: audiograbber 1.82.02
#
DISCID=8e11e90b
DTITLE=Diunna Greenleaf and Blue Mercy Band - Crazy But Live In Houston
DYEAR=2004
DGENRE=Blues
TTITLE0=Calling Blue Mercy
TTITLE1=Built For Comfort
TTITLE2=Dust My Broom
TTITLE3=If You Want Me To Stay
TTITLE4=Hell Bound
TTITLE5=Black Cat Bone
TTITLE6=Swing Low Sweet Chariot
TTITLE7=Born Under A Bad Sign
TTITLE8=Mother Earth
TTITLE9=29 Ways
TTITLE10=Crazy
EXTD=Produced by Diunna Greenleaf\nVocals: Diunna Greenleaf\nLead Guitar: John 
EXTD=Richardson\nBass Guitar: Larry "Lownote" Johnson\nDrums: Vernon Daniels\nS
EXTD=pecial Guest: Ken "Sugar" Hill (bass on "Crazy"]\n\nRecorded Live at Red C
EXTD=at Jazz Cafe in Houston, TX
EXTT0=
EXTT1=
EXTT2=
EXTT3=
EXTT4=
EXTT5=
EXTT6=
EXTT7=
EXTT8=
EXTT9=
EXTT10=
PLAYORDER=
